<svg width="600" height="600" viewBox="0 0 600 600" fill="none" xmlns="http://www.w3.org/2000/svg">
<path fill-rule="evenodd" clip-rule="evenodd" d="M31.25 200C31.25 106.802 106.802 31.25 200 31.25H400C493.198 31.25 568.75 106.802 568.75 200V400C568.75 493.198 493.198 568.75 400 568.75H200C106.802 568.75 31.25 493.198 31.25 400V200Z" fill="#43C152"/>
<path fill-rule="evenodd" clip-rule="evenodd" d="M413.258 224.242C420.58 231.564 420.58 243.436 413.258 250.757L297.603 366.415C280.518 383.5 252.815 383.5 235.731 366.415L186.742 317.425C179.419 310.102 179.419 298.23 186.742 290.907C194.064 283.585 205.936 283.585 213.258 290.907L262.247 339.897C264.687 342.337 268.645 342.337 271.085 339.897L386.743 224.242C394.065 216.919 405.935 216.919 413.258 224.242Z" fill="white"/>
</svg>
